<mxfile host="app.diagrams.net" agent="Mozilla/5.0 (X11; Linux x86_64) AppleWebKit/537.36 (KHTML, like Gecko) Chrome/133.0.0.0 Safari/537.36" version="28.1.2">
  <diagram name="Page-1" id="55a83fd1-7818-8e21-69c5-c3457e3827bb">
    <mxGraphModel dx="1251" dy="664" grid="1" gridSize="10" guides="1" tooltips="1" connect="1" arrows="1" fold="1" page="1" pageScale="1" pageWidth="1100" pageHeight="850" background="#ffffff" math="0" shadow="0">
      <root>
        <mxCell id="0" />
        <mxCell id="1" parent="0" />
        <UserObject label="&lt;div&gt;&lt;span style=&quot;text-wrap-mode: nowrap;&quot;&gt;&lt;b&gt;chboot entries&lt;/b&gt; life cycle / use cases&lt;/span&gt;&lt;/div&gt;" placeholders="1" name="Variable" id="cdEf1zgu6GCOJ6c-2kMY-17">
          <mxCell style="text;html=1;strokeColor=none;fillColor=none;align=left;verticalAlign=middle;whiteSpace=wrap;overflow=hidden;fontColor=#df1111;fontSize=18;" parent="1" vertex="1">
            <mxGeometry x="38" y="80" width="312" height="30" as="geometry" />
          </mxCell>
        </UserObject>
        <mxCell id="gRTWTJaisTNZ934lXJqq-1" value="" style="group" vertex="1" connectable="0" parent="1">
          <mxGeometry x="38" y="120" width="282" height="160" as="geometry" />
        </mxCell>
        <UserObject label="&lt;span style=&quot;text-wrap-mode: nowrap;&quot;&gt;chboot&lt;/span&gt;&lt;div&gt;&lt;span style=&quot;text-wrap-mode: nowrap;&quot;&gt;package&lt;/span&gt;&lt;/div&gt;" placeholders="1" name="Variable" id="vg8AIM2gMWxkjM6hYhQN-50">
          <mxCell style="text;html=1;strokeColor=none;fillColor=none;align=center;verticalAlign=middle;whiteSpace=wrap;overflow=hidden;" parent="gRTWTJaisTNZ934lXJqq-1" vertex="1">
            <mxGeometry y="40" width="56" height="40" as="geometry" />
          </mxCell>
        </UserObject>
        <mxCell id="vg8AIM2gMWxkjM6hYhQN-55" value="" style="html=1;shadow=0;dashed=0;align=center;verticalAlign=middle;shape=mxgraph.arrows2.arrow;dy=0.77;dx=17.86;notch=0;gradientColor=#ea6b66;strokeColor=none;fillColor=#FFFFCC;" parent="gRTWTJaisTNZ934lXJqq-1" vertex="1">
          <mxGeometry x="47" y="80" width="183" height="20" as="geometry" />
        </mxCell>
        <UserObject label="&lt;span style=&quot;text-wrap-mode: nowrap;&quot;&gt;install in&lt;/span&gt;&lt;div&gt;&lt;span style=&quot;text-wrap-mode: nowrap;&quot;&gt;chboot partition&lt;/span&gt;&lt;/div&gt;" placeholders="1" name="Variable" id="vg8AIM2gMWxkjM6hYhQN-59">
          <mxCell style="text;html=1;strokeColor=none;fillColor=none;align=center;verticalAlign=middle;whiteSpace=wrap;overflow=hidden;fontColor=#df1111;fontSize=16;" parent="gRTWTJaisTNZ934lXJqq-1" vertex="1">
            <mxGeometry x="77" y="43" width="120" height="50" as="geometry" />
          </mxCell>
        </UserObject>
        <UserObject label="&lt;span style=&quot;text-wrap-mode: nowrap;&quot;&gt;&lt;b&gt;&lt;font style=&quot;font-size: 14px;&quot;&gt;chboot tasks:&lt;/font&gt;&lt;/b&gt;&lt;/span&gt;&lt;div&gt;&lt;div&gt;&lt;div&gt;&lt;span style=&quot;text-wrap-mode: nowrap;&quot;&gt;&amp;gt; copy data to&lt;/span&gt;&lt;/div&gt;&lt;div&gt;&lt;span style=&quot;background-color: transparent; text-wrap-mode: nowrap;&quot;&gt;/chboot/l&lt;/span&gt;&lt;span style=&quot;text-wrap-mode: nowrap; background-color: transparent; color: light-dark(rgb(0, 0, 0), rgb(255, 255, 255));&quot;&gt;liurex-chboot/&lt;/span&gt;&lt;span style=&quot;text-wrap-mode: nowrap; background-color: transparent; color: light-dark(rgb(0, 0, 0), rgb(255, 255, 255));&quot;&gt;srcs/&lt;/span&gt;&lt;span style=&quot;text-wrap-mode: nowrap; background-color: transparent; color: light-dark(rgb(0, 0, 0), rgb(255, 255, 255));&quot;&gt;ENTRY&lt;/span&gt;&lt;/div&gt;&lt;div&gt;&lt;div&gt;&lt;span style=&quot;text-wrap-mode: nowrap; background-color: transparent; color: light-dark(rgb(0, 0, 0), rgb(255, 255, 255));&quot;&gt;&amp;gt; run hooks/install&lt;/span&gt;&lt;/div&gt;&lt;/div&gt;&lt;/div&gt;&lt;/div&gt;" placeholders="1" name="Variable" id="vg8AIM2gMWxkjM6hYhQN-66">
          <mxCell style="text;html=1;strokeColor=none;fillColor=none;align=left;verticalAlign=top;whiteSpace=wrap;overflow=hidden;fontFamily=Courier New;fontSize=10;" parent="gRTWTJaisTNZ934lXJqq-1" vertex="1">
            <mxGeometry x="38" y="90" width="230" height="70" as="geometry" />
          </mxCell>
        </UserObject>
        <UserObject label="&lt;span style=&quot;text-wrap-mode: nowrap;&quot;&gt;chboot&lt;/span&gt;&lt;div&gt;&lt;span style=&quot;text-wrap-mode: nowrap;&quot;&gt;partition&lt;/span&gt;&lt;/div&gt;" placeholders="1" name="Variable" id="vg8AIM2gMWxkjM6hYhQN-64">
          <mxCell style="text;html=1;strokeColor=none;fillColor=none;align=center;verticalAlign=middle;whiteSpace=wrap;overflow=hidden;" parent="gRTWTJaisTNZ934lXJqq-1" vertex="1">
            <mxGeometry x="226" y="40" width="56" height="40" as="geometry" />
          </mxCell>
        </UserObject>
        <mxCell id="vg8AIM2gMWxkjM6hYhQN-82" value="" style="group" parent="gRTWTJaisTNZ934lXJqq-1" vertex="1" connectable="0">
          <mxGeometry width="270" height="40" as="geometry" />
        </mxCell>
        <mxCell id="vg8AIM2gMWxkjM6hYhQN-35" value="" style="rounded=1;whiteSpace=wrap;html=1;textShadow=0;labelBorderColor=default;spacingRight=0;labelBackgroundColor=none;spacingBottom=0;shadow=1;align=left;" parent="vg8AIM2gMWxkjM6hYhQN-82" vertex="1">
          <mxGeometry width="270" height="40" as="geometry" />
        </mxCell>
        <UserObject label="&lt;span style=&quot;text-wrap-mode: nowrap;&quot;&gt;&lt;font style=&quot;font-size: 16px;&quot;&gt;chbootmgr install ENTRY&lt;/font&gt;&lt;/span&gt;" placeholders="1" name="Variable" id="vg8AIM2gMWxkjM6hYhQN-76">
          <mxCell style="text;html=1;strokeColor=none;fillColor=none;align=left;verticalAlign=top;whiteSpace=wrap;overflow=hidden;fontFamily=Courier New;fontSize=10;" parent="vg8AIM2gMWxkjM6hYhQN-82" vertex="1">
            <mxGeometry x="5" y="6" width="255" height="28" as="geometry" />
          </mxCell>
        </UserObject>
        <mxCell id="vg8AIM2gMWxkjM6hYhQN-128" value="" style="image;html=1;image=img/lib/clip_art/general/Empty_Folder_128x128.png" parent="gRTWTJaisTNZ934lXJqq-1" vertex="1">
          <mxGeometry x="0.57000000000005" y="76.76999999999998" width="40" height="40" as="geometry" />
        </mxCell>
        <mxCell id="np6OllQT8gTOCiWzdvVj-11" value="" style="group" parent="gRTWTJaisTNZ934lXJqq-1" vertex="1" connectable="0">
          <mxGeometry x="240" y="75.61000000000001" width="38.069999999999936" height="46.79000000000008" as="geometry" />
        </mxCell>
        <mxCell id="np6OllQT8gTOCiWzdvVj-12" value="" style="shadow=0;dashed=0;html=1;strokeColor=#b85450;fillColor=#f8cecc;labelPosition=center;verticalLabelPosition=bottom;verticalAlign=top;align=center;outlineConnect=0;shape=mxgraph.veeam.2d.hard_drive;gradientColor=#ea6b66;" parent="np6OllQT8gTOCiWzdvVj-11" vertex="1">
          <mxGeometry width="26.666666666666664" height="40.77" as="geometry" />
        </mxCell>
        <mxCell id="np6OllQT8gTOCiWzdvVj-13" value="" style="outlineConnect=0;dashed=0;verticalLabelPosition=bottom;verticalAlign=top;align=center;html=1;shape=mxgraph.aws3.disk;fillColor=#ffcccc;strokeColor=#36393d;" parent="np6OllQT8gTOCiWzdvVj-11" vertex="1">
          <mxGeometry x="11.403333333333308" y="33.200000000000045" width="26.666666666666664" height="13.590000000000002" as="geometry" />
        </mxCell>
        <mxCell id="gRTWTJaisTNZ934lXJqq-2" value="" style="group" vertex="1" connectable="0" parent="1">
          <mxGeometry x="350" y="120" width="310" height="220" as="geometry" />
        </mxCell>
        <UserObject label="&lt;span style=&quot;text-wrap-mode: nowrap;&quot;&gt;prepare entry&lt;/span&gt;" placeholders="1" name="Variable" id="vg8AIM2gMWxkjM6hYhQN-62">
          <mxCell style="text;html=1;strokeColor=none;fillColor=none;align=center;verticalAlign=top;whiteSpace=wrap;overflow=hidden;fontColor=#df1111;fontSize=16;" parent="gRTWTJaisTNZ934lXJqq-2" vertex="1">
            <mxGeometry x="45" y="85.15999999999997" width="120" height="28.61" as="geometry" />
          </mxCell>
        </UserObject>
        <UserObject label="&lt;div&gt;&lt;br&gt;&lt;/div&gt;&lt;div&gt;&lt;br&gt;&lt;/div&gt;&lt;div&gt;&lt;div&gt;&lt;span style=&quot;text-wrap-mode: nowrap; background-color: transparent; color: light-dark(rgb(0, 0, 0), rgb(255, 255, 255));&quot;&gt;&lt;br&gt;&lt;/span&gt;&lt;/div&gt;&lt;span style=&quot;text-wrap-mode: nowrap;&quot;&gt;&lt;b&gt;&lt;font style=&quot;font-size: 14px;&quot;&gt;chboot tasks:&lt;/font&gt;&lt;/b&gt;&lt;/span&gt;&lt;div&gt;&lt;span style=&quot;background-color: transparent; color: light-dark(rgb(0, 0, 0), rgb(255, 255, 255)); text-wrap-mode: nowrap;&quot;&gt;&amp;gt; run hooks/&lt;/span&gt;&lt;b style=&quot;background-color: transparent; color: light-dark(rgb(0, 0, 0), rgb(255, 255, 255)); text-wrap-mode: nowrap;&quot;&gt;configure&lt;/b&gt;&lt;/div&gt;&lt;div&gt;&lt;span style=&quot;background-color: transparent; color: light-dark(rgb(0, 0, 0), rgb(255, 255, 255)); text-wrap-mode: nowrap;&quot;&gt;&amp;gt; run hooks/&lt;b&gt;mk_grub&lt;/b&gt;&lt;/span&gt;&lt;/div&gt;&lt;/div&gt;&lt;div&gt;&lt;span style=&quot;background-color: transparent; color: light-dark(rgb(0, 0, 0), rgb(255, 255, 255)); text-wrap-mode: nowrap;&quot;&gt;&lt;br&gt;&lt;/span&gt;&lt;/div&gt;" placeholders="1" name="Variable" id="vg8AIM2gMWxkjM6hYhQN-63">
          <mxCell style="text;html=1;strokeColor=none;fillColor=none;align=left;verticalAlign=top;whiteSpace=wrap;overflow=hidden;fontFamily=Courier New;fontSize=10;" parent="gRTWTJaisTNZ934lXJqq-2" vertex="1">
            <mxGeometry x="22" y="120" width="164" height="100" as="geometry" />
          </mxCell>
        </UserObject>
        <mxCell id="vg8AIM2gMWxkjM6hYhQN-84" value="" style="rounded=1;whiteSpace=wrap;html=1;textShadow=0;labelBorderColor=default;spacingRight=0;labelBackgroundColor=none;spacingBottom=0;shadow=1;align=left;" parent="gRTWTJaisTNZ934lXJqq-2" vertex="1">
          <mxGeometry width="310" height="40" as="geometry" />
        </mxCell>
        <UserObject label="&lt;span style=&quot;text-wrap-mode: nowrap;&quot;&gt;&lt;font style=&quot;font-size: 16px;&quot;&gt;chbootmgr prepare ENTRY [...]&lt;/font&gt;&lt;/span&gt;" placeholders="1" name="Variable" id="vg8AIM2gMWxkjM6hYhQN-85">
          <mxCell style="text;html=1;strokeColor=none;fillColor=none;align=left;verticalAlign=top;whiteSpace=wrap;overflow=hidden;fontFamily=Courier New;fontSize=10;" parent="gRTWTJaisTNZ934lXJqq-2" vertex="1">
            <mxGeometry x="5" y="6" width="305" height="28" as="geometry" />
          </mxCell>
        </UserObject>
        <UserObject label="&lt;span style=&quot;text-wrap-mode: nowrap;&quot;&gt;chboot&lt;/span&gt;&lt;div&gt;&lt;span style=&quot;text-wrap-mode: nowrap;&quot;&gt;partition&lt;/span&gt;&lt;/div&gt;" placeholders="1" name="Variable" id="vg8AIM2gMWxkjM6hYhQN-86">
          <mxCell style="text;html=1;strokeColor=none;fillColor=none;align=center;verticalAlign=middle;whiteSpace=wrap;overflow=hidden;" parent="gRTWTJaisTNZ934lXJqq-2" vertex="1">
            <mxGeometry x="246" y="55" width="56" height="40" as="geometry" />
          </mxCell>
        </UserObject>
        <mxCell id="vg8AIM2gMWxkjM6hYhQN-90" value="" style="ellipse;shape=cloud;whiteSpace=wrap;html=1;" parent="gRTWTJaisTNZ934lXJqq-2" vertex="1">
          <mxGeometry x="10.54" y="58.06" width="80" height="35" as="geometry" />
        </mxCell>
        <mxCell id="vg8AIM2gMWxkjM6hYhQN-91" value="" style="sketch=0;pointerEvents=1;shadow=0;dashed=0;html=1;strokeColor=none;fillColor=#007FFF;labelPosition=center;verticalLabelPosition=bottom;verticalAlign=top;align=center;outlineConnect=0;shape=mxgraph.veeam2.usb_drive;rotation=-90;" parent="gRTWTJaisTNZ934lXJqq-2" vertex="1">
          <mxGeometry x="90.53999999999999" y="61.04000000000002" width="45.02" height="19.13" as="geometry" />
        </mxCell>
        <mxCell id="vg8AIM2gMWxkjM6hYhQN-92" value="" style="shadow=0;dashed=0;html=1;labelPosition=center;verticalLabelPosition=bottom;verticalAlign=top;align=center;outlineConnect=0;shape=mxgraph.veeam.3d.hard_drive;fillColor=#637D8A;gradientColor=#324752;strokeColor=none;" parent="gRTWTJaisTNZ934lXJqq-2" vertex="1">
          <mxGeometry x="129.56" y="65.94" width="66.44" height="30" as="geometry" />
        </mxCell>
        <mxCell id="vg8AIM2gMWxkjM6hYhQN-93" value="" style="html=1;shadow=0;dashed=0;align=center;verticalAlign=middle;shape=mxgraph.arrows2.arrow;dy=0.77;dx=17.86;notch=0;gradientColor=#ea6b66;strokeColor=none;fillColor=#FFFFCC;" parent="gRTWTJaisTNZ934lXJqq-2" vertex="1">
          <mxGeometry x="25" y="106.76999999999998" width="171" height="20" as="geometry" />
        </mxCell>
        <UserObject label="&lt;span style=&quot;text-wrap-mode: nowrap;&quot;&gt;chboot&lt;/span&gt;&lt;div&gt;&lt;span style=&quot;text-wrap-mode: nowrap;&quot;&gt;package&lt;/span&gt;&lt;/div&gt;" placeholders="1" name="Variable" id="vg8AIM2gMWxkjM6hYhQN-123">
          <mxCell style="text;html=1;strokeColor=none;fillColor=none;align=center;verticalAlign=middle;whiteSpace=wrap;overflow=hidden;" parent="gRTWTJaisTNZ934lXJqq-2" vertex="1">
            <mxGeometry x="196" y="55" width="56" height="40" as="geometry" />
          </mxCell>
        </UserObject>
        <mxCell id="vg8AIM2gMWxkjM6hYhQN-127" value="" style="image;html=1;image=img/lib/clip_art/general/Full_Folder_128x128.png" parent="gRTWTJaisTNZ934lXJqq-2" vertex="1">
          <mxGeometry x="206" y="91" width="40" height="40" as="geometry" />
        </mxCell>
        <UserObject label="&lt;div&gt;&lt;span style=&quot;text-wrap-mode: nowrap;&quot;&gt;(download/copy additional&lt;/span&gt;&lt;/div&gt;&lt;div&gt;&lt;span style=&quot;text-wrap-mode: nowrap;&quot;&gt;&amp;nbsp;files: images, isos ...)&amp;nbsp;&lt;/span&gt;&lt;/div&gt;" placeholders="1" name="Variable" id="np6OllQT8gTOCiWzdvVj-1">
          <mxCell style="text;html=1;strokeColor=none;fillColor=none;align=center;verticalAlign=top;whiteSpace=wrap;overflow=hidden;fontColor=#df1111;fontSize=16;" parent="gRTWTJaisTNZ934lXJqq-2" vertex="1">
            <mxGeometry x="18" y="114.76999999999998" width="190" height="46.23" as="geometry" />
          </mxCell>
        </UserObject>
        <mxCell id="np6OllQT8gTOCiWzdvVj-18" value="" style="group" parent="gRTWTJaisTNZ934lXJqq-2" vertex="1" connectable="0">
          <mxGeometry x="258.93" y="91" width="38.07" height="46.79" as="geometry" />
        </mxCell>
        <mxCell id="np6OllQT8gTOCiWzdvVj-19" value="" style="shadow=0;dashed=0;html=1;strokeColor=#b85450;fillColor=#f8cecc;labelPosition=center;verticalLabelPosition=bottom;verticalAlign=top;align=center;outlineConnect=0;shape=mxgraph.veeam.2d.hard_drive;gradientColor=#ea6b66;" parent="np6OllQT8gTOCiWzdvVj-18" vertex="1">
          <mxGeometry width="26.66666666666671" height="40.76999999999993" as="geometry" />
        </mxCell>
        <mxCell id="np6OllQT8gTOCiWzdvVj-20" value="" style="outlineConnect=0;dashed=0;verticalLabelPosition=bottom;verticalAlign=top;align=center;html=1;shape=mxgraph.aws3.disk;fillColor=#ffcccc;strokeColor=#36393d;" parent="np6OllQT8gTOCiWzdvVj-18" vertex="1">
          <mxGeometry x="11.403333333333327" y="33.19999999999999" width="26.66666666666671" height="13.589999999999979" as="geometry" />
        </mxCell>
        <mxCell id="gRTWTJaisTNZ934lXJqq-3" value="" style="group" vertex="1" connectable="0" parent="1">
          <mxGeometry x="700" y="120" width="282" height="157" as="geometry" />
        </mxCell>
        <mxCell id="vg8AIM2gMWxkjM6hYhQN-146" value="" style="group" parent="gRTWTJaisTNZ934lXJqq-3" vertex="1" connectable="0">
          <mxGeometry width="270" height="40" as="geometry" />
        </mxCell>
        <mxCell id="vg8AIM2gMWxkjM6hYhQN-147" value="" style="rounded=1;whiteSpace=wrap;html=1;textShadow=0;labelBorderColor=default;spacingRight=0;labelBackgroundColor=none;spacingBottom=0;shadow=1;align=left;" parent="vg8AIM2gMWxkjM6hYhQN-146" vertex="1">
          <mxGeometry width="270" height="40" as="geometry" />
        </mxCell>
        <UserObject label="&lt;span style=&quot;text-wrap-mode: nowrap;&quot;&gt;&lt;font style=&quot;font-size: 16px;&quot;&gt;chbootmgr boot ENTRY&lt;/font&gt;&lt;/span&gt;" placeholders="1" name="Variable" id="vg8AIM2gMWxkjM6hYhQN-148">
          <mxCell style="text;html=1;strokeColor=none;fillColor=none;align=left;verticalAlign=top;whiteSpace=wrap;overflow=hidden;fontFamily=Courier New;fontSize=10;" parent="vg8AIM2gMWxkjM6hYhQN-146" vertex="1">
            <mxGeometry x="5" y="6" width="255" height="28" as="geometry" />
          </mxCell>
        </UserObject>
        <UserObject label="&lt;span style=&quot;text-wrap-mode: nowrap;&quot;&gt;activate entry and reboot computer&amp;nbsp;&lt;/span&gt;" placeholders="1" name="Variable" id="vg8AIM2gMWxkjM6hYhQN-151">
          <mxCell style="text;html=1;strokeColor=none;fillColor=none;align=center;verticalAlign=middle;whiteSpace=wrap;overflow=hidden;fontColor=#df1111;fontSize=16;" parent="gRTWTJaisTNZ934lXJqq-3" vertex="1">
            <mxGeometry x="3" y="30" width="260" height="50" as="geometry" />
          </mxCell>
        </UserObject>
        <UserObject label="&lt;div&gt;&lt;span style=&quot;text-wrap-mode: nowrap;&quot;&gt;&lt;b&gt;&lt;font style=&quot;font-size: 14px;&quot;&gt;chboot tasks:&lt;/font&gt;&lt;/b&gt;&lt;/span&gt;&lt;div&gt;&lt;i style=&quot;background-color: transparent; color: light-dark(rgb(0, 0, 0), rgb(255, 255, 255)); text-wrap-mode: nowrap;&quot;&gt;&amp;gt; create UEFI entry&lt;/i&gt;&lt;/div&gt;&lt;div&gt;&lt;span style=&quot;text-wrap-mode: nowrap; background-color: transparent; color: light-dark(rgb(0, 0, 0), rgb(255, 255, 255));&quot;&gt;&lt;i&gt;&amp;gt; create EFI directory&lt;/i&gt;&lt;/span&gt;&lt;/div&gt;&lt;div&gt;&lt;span style=&quot;text-wrap-mode: nowrap; background-color: transparent; color: light-dark(rgb(0, 0, 0), rgb(255, 255, 255));&quot;&gt;&lt;i&gt;&amp;gt; set UEFI &#39;bootnext&lt;br&gt;&lt;/i&gt;&lt;/span&gt;&lt;/div&gt;&lt;/div&gt;&lt;div&gt;&lt;span style=&quot;text-wrap-mode: nowrap; background-color: transparent; color: light-dark(rgb(0, 0, 0), rgb(255, 255, 255));&quot;&gt;&amp;gt; run hooks/uninstall&lt;/span&gt;&lt;/div&gt;&lt;div&gt;&lt;span style=&quot;text-wrap-mode: nowrap; background-color: transparent; color: light-dark(rgb(0, 0, 0), rgb(255, 255, 255));&quot;&gt;&amp;gt; reboot computer&lt;/span&gt;&lt;/div&gt;" placeholders="1" name="Variable" id="vg8AIM2gMWxkjM6hYhQN-155">
          <mxCell style="text;html=1;strokeColor=none;fillColor=none;align=left;verticalAlign=top;whiteSpace=wrap;overflow=hidden;fontFamily=Courier New;fontSize=10;" parent="gRTWTJaisTNZ934lXJqq-3" vertex="1">
            <mxGeometry x="108.57" y="62" width="173.43" height="95" as="geometry" />
          </mxCell>
        </UserObject>
        <UserObject label="&lt;span style=&quot;text-wrap-mode: nowrap;&quot;&gt;chboot&lt;/span&gt;&lt;div&gt;&lt;span style=&quot;text-wrap-mode: nowrap;&quot;&gt;partition&lt;/span&gt;&lt;/div&gt;" placeholders="1" name="Variable" id="vg8AIM2gMWxkjM6hYhQN-160">
          <mxCell style="text;html=1;strokeColor=none;fillColor=none;align=center;verticalAlign=middle;whiteSpace=wrap;overflow=hidden;" parent="gRTWTJaisTNZ934lXJqq-3" vertex="1">
            <mxGeometry x="53" y="65" width="56" height="40" as="geometry" />
          </mxCell>
        </UserObject>
        <UserObject label="&lt;span style=&quot;text-wrap-mode: nowrap;&quot;&gt;chboot&lt;/span&gt;&lt;div&gt;&lt;span style=&quot;text-wrap-mode: nowrap;&quot;&gt;package&lt;/span&gt;&lt;/div&gt;" placeholders="1" name="Variable" id="vg8AIM2gMWxkjM6hYhQN-164">
          <mxCell style="text;html=1;strokeColor=none;fillColor=none;align=center;verticalAlign=middle;whiteSpace=wrap;overflow=hidden;" parent="gRTWTJaisTNZ934lXJqq-3" vertex="1">
            <mxGeometry x="3" y="65" width="56" height="40" as="geometry" />
          </mxCell>
        </UserObject>
        <mxCell id="vg8AIM2gMWxkjM6hYhQN-165" value="" style="image;html=1;image=img/lib/clip_art/general/Full_Folder_128x128.png" parent="gRTWTJaisTNZ934lXJqq-3" vertex="1">
          <mxGeometry x="13" y="101" width="40" height="40" as="geometry" />
        </mxCell>
        <mxCell id="np6OllQT8gTOCiWzdvVj-9" value="" style="group" parent="gRTWTJaisTNZ934lXJqq-3" vertex="1" connectable="0">
          <mxGeometry x="66.97000000000003" y="101" width="38.069999999999936" height="46.79000000000008" as="geometry" />
        </mxCell>
        <mxCell id="np6OllQT8gTOCiWzdvVj-3" value="" style="shadow=0;dashed=0;html=1;strokeColor=#b85450;fillColor=#f8cecc;labelPosition=center;verticalLabelPosition=bottom;verticalAlign=top;align=center;outlineConnect=0;shape=mxgraph.veeam.2d.hard_drive;gradientColor=#ea6b66;" parent="np6OllQT8gTOCiWzdvVj-9" vertex="1">
          <mxGeometry width="26.666666666666664" height="40.77" as="geometry" />
        </mxCell>
        <mxCell id="np6OllQT8gTOCiWzdvVj-4" value="" style="outlineConnect=0;dashed=0;verticalLabelPosition=bottom;verticalAlign=top;align=center;html=1;shape=mxgraph.aws3.disk;fillColor=#ffcccc;strokeColor=#36393d;" parent="np6OllQT8gTOCiWzdvVj-9" vertex="1">
          <mxGeometry x="11.403333333333308" y="33.200000000000045" width="26.666666666666664" height="13.590000000000002" as="geometry" />
        </mxCell>
        <mxCell id="gRTWTJaisTNZ934lXJqq-4" value="" style="group" vertex="1" connectable="0" parent="1">
          <mxGeometry x="350" y="360" width="270" height="160" as="geometry" />
        </mxCell>
        <UserObject label="&lt;span style=&quot;text-wrap-mode: nowrap;&quot;&gt;delete&lt;/span&gt;&lt;div&gt;&lt;span style=&quot;text-wrap-mode: nowrap;&quot;&gt;additional files&lt;/span&gt;&lt;/div&gt;" placeholders="1" name="Variable" id="vg8AIM2gMWxkjM6hYhQN-109">
          <mxCell style="text;html=1;strokeColor=none;fillColor=none;align=center;verticalAlign=middle;whiteSpace=wrap;overflow=hidden;fontColor=#df1111;fontSize=16;" parent="gRTWTJaisTNZ934lXJqq-4" vertex="1">
            <mxGeometry x="46" y="55" width="120" height="50" as="geometry" />
          </mxCell>
        </UserObject>
        <UserObject label="&lt;span style=&quot;text-wrap-mode: nowrap;&quot;&gt;chboot&lt;/span&gt;&lt;div&gt;&lt;span style=&quot;text-wrap-mode: nowrap;&quot;&gt;partition&lt;/span&gt;&lt;/div&gt;" placeholders="1" name="Variable" id="vg8AIM2gMWxkjM6hYhQN-111">
          <mxCell style="text;html=1;strokeColor=none;fillColor=none;align=center;verticalAlign=middle;whiteSpace=wrap;overflow=hidden;" parent="gRTWTJaisTNZ934lXJqq-4" vertex="1">
            <mxGeometry x="213" y="40" width="56" height="40" as="geometry" />
          </mxCell>
        </UserObject>
        <mxCell id="vg8AIM2gMWxkjM6hYhQN-115" value="" style="group" parent="gRTWTJaisTNZ934lXJqq-4" vertex="1" connectable="0">
          <mxGeometry width="270" height="40" as="geometry" />
        </mxCell>
        <mxCell id="vg8AIM2gMWxkjM6hYhQN-116" value="" style="rounded=1;whiteSpace=wrap;html=1;textShadow=0;labelBorderColor=default;spacingRight=0;labelBackgroundColor=none;spacingBottom=0;shadow=1;align=left;" parent="vg8AIM2gMWxkjM6hYhQN-115" vertex="1">
          <mxGeometry width="270" height="40" as="geometry" />
        </mxCell>
        <UserObject label="&lt;span style=&quot;text-wrap-mode: nowrap;&quot;&gt;&lt;font style=&quot;font-size: 16px;&quot;&gt;chbootmgr free-up ENTRY&lt;/font&gt;&lt;/span&gt;" placeholders="1" name="Variable" id="vg8AIM2gMWxkjM6hYhQN-117">
          <mxCell style="text;html=1;strokeColor=none;fillColor=none;align=left;verticalAlign=top;whiteSpace=wrap;overflow=hidden;fontFamily=Courier New;fontSize=10;" parent="vg8AIM2gMWxkjM6hYhQN-115" vertex="1">
            <mxGeometry x="5" y="6" width="255" height="28" as="geometry" />
          </mxCell>
        </UserObject>
        <UserObject label="&lt;span style=&quot;text-wrap-mode: nowrap;&quot;&gt;chboot&lt;/span&gt;&lt;div&gt;&lt;span style=&quot;text-wrap-mode: nowrap;&quot;&gt;package&lt;/span&gt;&lt;/div&gt;" placeholders="1" name="Variable" id="vg8AIM2gMWxkjM6hYhQN-125">
          <mxCell style="text;html=1;strokeColor=none;fillColor=none;align=center;verticalAlign=middle;whiteSpace=wrap;overflow=hidden;" parent="gRTWTJaisTNZ934lXJqq-4" vertex="1">
            <mxGeometry x="163" y="41.110000000000014" width="56" height="40" as="geometry" />
          </mxCell>
        </UserObject>
        <mxCell id="vg8AIM2gMWxkjM6hYhQN-133" value="" style="html=1;shadow=0;dashed=0;align=center;verticalAlign=middle;shape=mxgraph.arrows2.arrow;dy=0.77;dx=17.86;notch=0;gradientColor=#ea6b66;strokeColor=none;fillColor=#FFFFCC;" parent="gRTWTJaisTNZ934lXJqq-4" vertex="1">
          <mxGeometry x="52.5" y="95" width="126.5" height="20" as="geometry" />
        </mxCell>
        <mxCell id="vg8AIM2gMWxkjM6hYhQN-134" value="" style="image;html=1;image=img/lib/clip_art/general/Empty_Folder_128x128.png" parent="gRTWTJaisTNZ934lXJqq-4" vertex="1">
          <mxGeometry x="171" y="76.76999999999998" width="40" height="40" as="geometry" />
        </mxCell>
        <UserObject label="&lt;span style=&quot;text-wrap-mode: nowrap;&quot;&gt;chboot&lt;/span&gt;&lt;div&gt;&lt;span style=&quot;text-wrap-mode: nowrap;&quot;&gt;package&lt;/span&gt;&lt;/div&gt;" placeholders="1" name="Variable" id="vg8AIM2gMWxkjM6hYhQN-135">
          <mxCell style="text;html=1;strokeColor=none;fillColor=none;align=center;verticalAlign=middle;whiteSpace=wrap;overflow=hidden;" parent="gRTWTJaisTNZ934lXJqq-4" vertex="1">
            <mxGeometry y="44" width="56" height="40" as="geometry" />
          </mxCell>
        </UserObject>
        <mxCell id="vg8AIM2gMWxkjM6hYhQN-136" value="" style="image;html=1;image=img/lib/clip_art/general/Full_Folder_128x128.png" parent="gRTWTJaisTNZ934lXJqq-4" vertex="1">
          <mxGeometry x="10" y="80" width="40" height="40" as="geometry" />
        </mxCell>
        <UserObject label="&lt;div&gt;&lt;span style=&quot;text-wrap-mode: nowrap;&quot;&gt;&lt;b&gt;&lt;font style=&quot;font-size: 14px;&quot;&gt;chboot tasks:&lt;/font&gt;&lt;/b&gt;&lt;/span&gt;&lt;div&gt;&lt;span style=&quot;background-color: transparent; color: light-dark(rgb(0, 0, 0), rgb(255, 255, 255)); text-wrap-mode: nowrap;&quot;&gt;&amp;gt; run hooks/&lt;/span&gt;&lt;b style=&quot;background-color: transparent; color: light-dark(rgb(0, 0, 0), rgb(255, 255, 255)); text-wrap-mode: nowrap;&quot;&gt;free_up&lt;/b&gt;&lt;/div&gt;&lt;/div&gt;" placeholders="1" name="Variable" id="vg8AIM2gMWxkjM6hYhQN-137">
          <mxCell style="text;html=1;strokeColor=none;fillColor=none;align=left;verticalAlign=top;whiteSpace=wrap;overflow=hidden;fontFamily=Courier New;fontSize=10;" parent="gRTWTJaisTNZ934lXJqq-4" vertex="1">
            <mxGeometry x="54" y="106.76999999999998" width="164" height="53.23" as="geometry" />
          </mxCell>
        </UserObject>
        <mxCell id="np6OllQT8gTOCiWzdvVj-21" value="" style="group" parent="gRTWTJaisTNZ934lXJqq-4" vertex="1" connectable="0">
          <mxGeometry x="228" y="75" width="38.07" height="46.79" as="geometry" />
        </mxCell>
        <mxCell id="np6OllQT8gTOCiWzdvVj-22" value="" style="shadow=0;dashed=0;html=1;strokeColor=#b85450;fillColor=#f8cecc;labelPosition=center;verticalLabelPosition=bottom;verticalAlign=top;align=center;outlineConnect=0;shape=mxgraph.veeam.2d.hard_drive;gradientColor=#ea6b66;" parent="np6OllQT8gTOCiWzdvVj-21" vertex="1">
          <mxGeometry width="26.66666666666671" height="40.76999999999993" as="geometry" />
        </mxCell>
        <mxCell id="np6OllQT8gTOCiWzdvVj-23" value="" style="outlineConnect=0;dashed=0;verticalLabelPosition=bottom;verticalAlign=top;align=center;html=1;shape=mxgraph.aws3.disk;fillColor=#ffcccc;strokeColor=#36393d;" parent="np6OllQT8gTOCiWzdvVj-21" vertex="1">
          <mxGeometry x="11.403333333333327" y="33.19999999999999" width="26.66666666666671" height="13.589999999999979" as="geometry" />
        </mxCell>
        <mxCell id="gRTWTJaisTNZ934lXJqq-6" value="" style="group" vertex="1" connectable="0" parent="1">
          <mxGeometry x="38" y="360" width="270" height="130" as="geometry" />
        </mxCell>
        <UserObject label="&lt;div&gt;&lt;span style=&quot;text-wrap-mode: nowrap;&quot;&gt;&lt;b&gt;&lt;font style=&quot;font-size: 14px;&quot;&gt;chboot tasks:&lt;/font&gt;&lt;/b&gt;&lt;/span&gt;&lt;div&gt;&lt;span style=&quot;background-color: transparent; color: light-dark(rgb(0, 0, 0), rgb(255, 255, 255)); text-wrap-mode: nowrap;&quot;&gt;&amp;gt; run hooks/&lt;/span&gt;&lt;b style=&quot;background-color: transparent; color: light-dark(rgb(0, 0, 0), rgb(255, 255, 255)); text-wrap-mode: nowrap;&quot;&gt;uninstall&lt;/b&gt;&lt;/div&gt;&lt;/div&gt;" placeholders="1" name="Variable" id="vg8AIM2gMWxkjM6hYhQN-121">
          <mxCell style="text;html=1;strokeColor=none;fillColor=none;align=left;verticalAlign=top;whiteSpace=wrap;overflow=hidden;fontFamily=Courier New;fontSize=10;" parent="gRTWTJaisTNZ934lXJqq-6" vertex="1">
            <mxGeometry x="10" y="93" width="226.43" height="37" as="geometry" />
          </mxCell>
        </UserObject>
        <UserObject label="&lt;span style=&quot;text-wrap-mode: nowrap;&quot;&gt;chboot&lt;/span&gt;&lt;div&gt;&lt;span style=&quot;text-wrap-mode: nowrap;&quot;&gt;package&lt;/span&gt;&lt;/div&gt;" placeholders="1" name="Variable" id="vg8AIM2gMWxkjM6hYhQN-94">
          <mxCell style="text;html=1;strokeColor=none;fillColor=none;align=center;verticalAlign=middle;whiteSpace=wrap;overflow=hidden;" parent="gRTWTJaisTNZ934lXJqq-6" vertex="1">
            <mxGeometry x="149" y="43" width="56" height="40" as="geometry" />
          </mxCell>
        </UserObject>
        <UserObject label="&lt;span style=&quot;text-wrap-mode: nowrap;&quot;&gt;remove from&lt;/span&gt;&lt;div&gt;&lt;span style=&quot;text-wrap-mode: nowrap;&quot;&gt;chboot partition&lt;/span&gt;&lt;/div&gt;" placeholders="1" name="Variable" id="vg8AIM2gMWxkjM6hYhQN-96">
          <mxCell style="text;html=1;strokeColor=none;fillColor=none;align=center;verticalAlign=middle;whiteSpace=wrap;overflow=hidden;fontColor=#df1111;fontSize=16;" parent="gRTWTJaisTNZ934lXJqq-6" vertex="1">
            <mxGeometry x="10" y="55" width="120" height="50" as="geometry" />
          </mxCell>
        </UserObject>
        <UserObject label="&lt;span style=&quot;text-wrap-mode: nowrap;&quot;&gt;chboot&lt;/span&gt;&lt;div&gt;&lt;span style=&quot;text-wrap-mode: nowrap;&quot;&gt;partition&lt;/span&gt;&lt;/div&gt;" placeholders="1" name="Variable" id="vg8AIM2gMWxkjM6hYhQN-98">
          <mxCell style="text;html=1;strokeColor=none;fillColor=none;align=center;verticalAlign=middle;whiteSpace=wrap;overflow=hidden;" parent="gRTWTJaisTNZ934lXJqq-6" vertex="1">
            <mxGeometry x="205" y="40" width="56" height="40" as="geometry" />
          </mxCell>
        </UserObject>
        <mxCell id="vg8AIM2gMWxkjM6hYhQN-102" value="" style="group" parent="gRTWTJaisTNZ934lXJqq-6" vertex="1" connectable="0">
          <mxGeometry width="270" height="40" as="geometry" />
        </mxCell>
        <mxCell id="vg8AIM2gMWxkjM6hYhQN-103" value="" style="rounded=1;whiteSpace=wrap;html=1;textShadow=0;labelBorderColor=default;spacingRight=0;labelBackgroundColor=none;spacingBottom=0;shadow=1;align=left;" parent="vg8AIM2gMWxkjM6hYhQN-102" vertex="1">
          <mxGeometry width="270" height="40" as="geometry" />
        </mxCell>
        <UserObject label="&lt;span style=&quot;text-wrap-mode: nowrap;&quot;&gt;&lt;font style=&quot;font-size: 16px;&quot;&gt;chbootmgr unistall ENTRY&lt;/font&gt;&lt;/span&gt;" placeholders="1" name="Variable" id="vg8AIM2gMWxkjM6hYhQN-104">
          <mxCell style="text;html=1;strokeColor=none;fillColor=none;align=left;verticalAlign=top;whiteSpace=wrap;overflow=hidden;fontFamily=Courier New;fontSize=10;" parent="vg8AIM2gMWxkjM6hYhQN-102" vertex="1">
            <mxGeometry x="5" y="6" width="255" height="28" as="geometry" />
          </mxCell>
        </UserObject>
        <mxCell id="vg8AIM2gMWxkjM6hYhQN-129" value="" style="image;html=1;image=img/lib/clip_art/general/Empty_Folder_128x128.png" parent="gRTWTJaisTNZ934lXJqq-6" vertex="1">
          <mxGeometry x="153" y="80" width="40" height="40" as="geometry" />
        </mxCell>
        <mxCell id="vg8AIM2gMWxkjM6hYhQN-107" value="" style="group" parent="gRTWTJaisTNZ934lXJqq-6" vertex="1" connectable="0">
          <mxGeometry x="160" y="84" width="30" height="30" as="geometry" />
        </mxCell>
        <mxCell id="vg8AIM2gMWxkjM6hYhQN-105" value="" style="endArrow=none;html=1;rounded=0;strokeColor=#FF0000;strokeWidth=4;" parent="vg8AIM2gMWxkjM6hYhQN-107" edge="1">
          <mxGeometry width="50" height="50" relative="1" as="geometry">
            <mxPoint y="30" as="sourcePoint" />
            <mxPoint x="30" as="targetPoint" />
          </mxGeometry>
        </mxCell>
        <mxCell id="vg8AIM2gMWxkjM6hYhQN-106" value="" style="endArrow=none;html=1;rounded=0;strokeColor=#FF0000;strokeWidth=4;" parent="vg8AIM2gMWxkjM6hYhQN-107" edge="1">
          <mxGeometry width="50" height="50" relative="1" as="geometry">
            <mxPoint x="30" y="30" as="sourcePoint" />
            <mxPoint as="targetPoint" />
          </mxGeometry>
        </mxCell>
        <mxCell id="np6OllQT8gTOCiWzdvVj-15" value="" style="group" parent="gRTWTJaisTNZ934lXJqq-6" vertex="1" connectable="0">
          <mxGeometry x="219" y="73.38" width="38.069999999999936" height="46.79000000000008" as="geometry" />
        </mxCell>
        <mxCell id="np6OllQT8gTOCiWzdvVj-16" value="" style="shadow=0;dashed=0;html=1;strokeColor=#b85450;fillColor=#f8cecc;labelPosition=center;verticalLabelPosition=bottom;verticalAlign=top;align=center;outlineConnect=0;shape=mxgraph.veeam.2d.hard_drive;gradientColor=#ea6b66;" parent="np6OllQT8gTOCiWzdvVj-15" vertex="1">
          <mxGeometry width="26.666666666666664" height="40.77" as="geometry" />
        </mxCell>
        <mxCell id="np6OllQT8gTOCiWzdvVj-17" value="" style="outlineConnect=0;dashed=0;verticalLabelPosition=bottom;verticalAlign=top;align=center;html=1;shape=mxgraph.aws3.disk;fillColor=#ffcccc;strokeColor=#36393d;" parent="np6OllQT8gTOCiWzdvVj-15" vertex="1">
          <mxGeometry x="11.403333333333308" y="33.200000000000045" width="26.666666666666664" height="13.590000000000002" as="geometry" />
        </mxCell>
      </root>
    </mxGraphModel>
  </diagram>
</mxfile>
